<svg width="23" height="17" viewBox="0 0 23 17" fill="none" xmlns="http://www.w3.org/2000/svg">
<path d="M12.6074 4.43315L12.1829 4.00862C10.413 2.23876 9.5281 1.35382 8.56913 1.35498C8.25573 1.35506 7.94561 1.41882 7.65759 1.54238C6.77613 1.9218 6.31342 3.08436 5.38801 5.41063L5.32091 5.57836C5.05833 6.23772 4.92761 6.5674 4.71592 6.83346C4.55609 7.03512 4.36374 7.20871 4.14679 7.34707C3.86107 7.52984 3.51982 7.62701 2.83732 7.82134C1.77887 8.12095 1.24907 8.27133 1.01425 8.59175C0.839869 8.82958 0.762906 9.12502 0.799087 9.41769C0.848829 9.81215 1.2375 10.202 2.01601 10.9793L5.63671 14.6C6.41522 15.3785 6.8039 15.7684 7.19836 15.817C7.49141 15.8534 7.78732 15.7765 8.02545 15.6018C8.34587 15.367 8.4951 14.8383 8.79586 13.7787C8.9902 13.0962 9.08621 12.755 9.27014 12.4693C9.40815 12.2524 9.58134 12.0601 9.78259 11.9001C10.0486 11.6896 10.3783 11.5577 11.0377 11.2951L11.2066 11.228C13.5317 10.3026 14.6942 9.83991 15.0737 8.95845C15.1972 8.67043 15.261 8.36032 15.2611 8.04691C15.2611 7.08679 14.3773 6.20302 12.6074 4.43315Z" stroke="white" stroke-width="1.26168"/>
<path d="M0.709961 15.9061L3.82631 12.7897M22.2873 4.17406H16.5034M22.2873 9.37954H17.6602M22.2873 14.585H11.8763" stroke="white" stroke-width="1.26168" stroke-linecap="round"/>
</svg>
