<svg width="24" height="16" viewBox="0 0 24 16" fill="none" xmlns="http://www.w3.org/2000/svg">
<path fill-rule="evenodd" clip-rule="evenodd" d="M12.924 3.57897L12.4954 3.15858C10.709 1.40165 9.81409 0.522002 8.84613 0.523179C8.52818 0.523179 8.21613 0.586768 7.92527 0.709235C7.03503 1.08606 6.56753 2.24007 5.63136 4.54929L5.56424 4.7165C5.29929 5.37123 5.16622 5.69859 4.95426 5.96237C4.79176 6.16256 4.59746 6.33566 4.37843 6.47226C4.08992 6.6536 3.7449 6.75016 3.05484 6.94328C1.98561 7.24003 1.45099 7.39076 1.2143 7.7087C1.03808 7.94328 0.959962 8.23718 0.996452 8.52829C1.04591 8.92042 1.43922 9.30549 2.22466 10.0791L3.42224 11.2567L4.6528 12.4649L4.674 12.4861L5.88336 13.6743C6.66998 14.4468 7.06211 14.833 7.4613 14.8813C7.75687 14.9178 8.05598 14.8412 8.2962 14.6693C8.62003 14.435 8.77194 13.9098 9.07457 12.8582C9.27123 12.1811 9.36897 11.842 9.55267 11.5582C9.69398 11.3427 9.86826 11.1519 10.072 10.9929C10.3405 10.7833 10.6737 10.6526 11.3402 10.3924L11.5098 10.3264C13.859 9.40794 15.0342 8.94868 15.417 8.07257C15.5418 7.78642 15.6054 7.47908 15.6065 7.1682C15.6065 6.21437 14.7128 5.3359 12.924 3.57897Z" fill="#865CD0"/>
<path d="M1.52395 15.5796L4.67277 12.4861L4.65157 12.4649L3.42102 11.2556L0.285149 14.3608C0.203859 14.4401 0.139258 14.5349 0.0951506 14.6395C0.0510431 14.7442 0.0283203 14.8566 0.0283203 14.9702C0.0283203 15.0838 0.0510431 15.1962 0.0951506 15.3008C0.139258 15.4055 0.203859 15.5003 0.285149 15.5796C0.450837 15.7416 0.673383 15.8324 0.905139 15.8324C1.1369 15.8324 1.35826 15.7416 1.52395 15.5796Z" fill="#865CD0"/>
<path fill-rule="evenodd" clip-rule="evenodd" d="M23.5798 3.32226C23.5776 3.55254 23.4841 3.77254 23.3198 3.93395C23.1556 4.09535 22.934 4.18494 22.7037 4.18306H16.8606C16.6303 4.18494 16.4087 4.09535 16.2444 3.93395C16.0801 3.77254 15.9866 3.55254 15.9845 3.32226C15.9845 2.84652 16.3766 2.46146 16.8606 2.46146H22.7037C23.1876 2.46146 23.5798 2.84652 23.5798 3.32226ZM23.5798 8.49061C23.5776 8.72089 23.4841 8.94089 23.3198 9.10229C23.1556 9.26369 22.934 9.35329 22.7037 9.35141H18.0287C17.7984 9.35329 17.5768 9.26369 17.4125 9.10229C17.2483 8.94089 17.1548 8.72089 17.1526 8.49061C17.1526 8.01487 17.5447 7.62863 18.0287 7.62863H22.7037C23.1876 7.62863 23.5798 8.01487 23.5798 8.49061ZM23.5798 13.659C23.5776 13.8892 23.4841 14.1092 23.3198 14.2706C23.1556 14.432 22.934 14.5216 22.7037 14.5198H12.1856C11.9553 14.5216 11.7337 14.432 11.5694 14.2706C11.4052 14.1092 11.3117 13.8892 11.3095 13.659C11.3095 13.1832 11.7016 12.797 12.1856 12.797H22.7037C23.1876 12.797 23.5798 13.1832 23.5798 13.659Z" fill="white"/>
</svg>
